# xmcd CD database file
#
# Track frame offsets:
#	187
#	17385
#	35625
#	52792
#
# Disc length: 946 seconds
#
# Revision: 0
# Processed by: cddbd v1.5PL3 Copyright (c) Steve Scherf et al.
# Submitted via: CDex 1.50beta9
#
DISCID=2203b004
DTITLE=SMAP - がんばりましょう
DYEAR=1994
DGENRE=J-POP
TTITLE0=がんばりましょう
TTITLE1=君と僕の６ヶ月
TTITLE2=がんばりましょう　カラオケ
TTITLE3=君と僕の６ヶ月　カラオケ
EXTD=YEAR: 1994
EXTT0=
EXTT1=
EXTT2=
EXTT3=
PLAYORDER=
